<mxfile host="www.draw.io" modified="2019-11-29T03:06:39.542Z" agent="Mozilla/5.0 (Macintosh; Intel Mac OS X 10_15) AppleWebKit/605.1.15 (KHTML, like Gecko) Version/13.0.2 Safari/605.1.15" etag="54wbkVkzAQplkBrYeWfJ" version="12.3.2" type="github" pages="1">
  <diagram id="XCuIl56tU6z1rCXFtDXj" name="第 1 页">
    <mxGraphModel dx="1428" dy="1065" grid="1" gridSize="10" guides="1" tooltips="1" connect="1" arrows="1" fold="1" page="1" pageScale="1" pageWidth="1400" pageHeight="850" math="0" shadow="0">
      <root>
        <mxCell id="0"/>
        <mxCell id="E5Us2acqexVQ0qHORM-2-2" value="未命名图层" style="" parent="0"/>
        <mxCell id="E5Us2acqexVQ0qHORM-2-3" value="蜜趣" style="rounded=1;whiteSpace=wrap;html=1;" vertex="1" parent="E5Us2acqexVQ0qHORM-2-2">
          <mxGeometry x="663" y="70" width="120" height="100" as="geometry"/>
        </mxCell>
        <mxCell id="E5Us2acqexVQ0qHORM-2-4" value="Module" style="swimlane;" vertex="1" parent="E5Us2acqexVQ0qHORM-2-2">
          <mxGeometry x="95" y="210" width="1255" height="146" as="geometry"/>
        </mxCell>
        <mxCell id="E5Us2acqexVQ0qHORM-2-5" value="Component" style="swimlane;" vertex="1" parent="E5Us2acqexVQ0qHORM-2-2">
          <mxGeometry x="95" y="462" width="896" height="238" as="geometry"/>
        </mxCell>
        <mxCell id="E5Us2acqexVQ0qHORM-2-6" value="图片选择器（拍照+照片）" style="rounded=1;whiteSpace=wrap;html=1;" vertex="1" parent="E5Us2acqexVQ0qHORM-2-5">
          <mxGeometry x="16" y="55" width="85" height="165" as="geometry"/>
        </mxCell>
        <mxCell id="E5Us2acqexVQ0qHORM-2-7" value="个人主页" style="rounded=1;whiteSpace=wrap;html=1;" vertex="1" parent="E5Us2acqexVQ0qHORM-2-5">
          <mxGeometry x="116" y="55" width="59" height="165" as="geometry"/>
        </mxCell>
        <mxCell id="E5Us2acqexVQ0qHORM-2-8" value="送礼消息" style="rounded=1;whiteSpace=wrap;html=1;" vertex="1" parent="E5Us2acqexVQ0qHORM-2-5">
          <mxGeometry x="186" y="55" width="56" height="165" as="geometry"/>
        </mxCell>
        <mxCell id="E5Us2acqexVQ0qHORM-2-9" value="挂件控件" style="rounded=1;whiteSpace=wrap;html=1;" vertex="1" parent="E5Us2acqexVQ0qHORM-2-5">
          <mxGeometry x="256" y="55" width="54" height="165" as="geometry"/>
        </mxCell>
        <mxCell id="E5Us2acqexVQ0qHORM-2-10" value="头像" style="rounded=1;whiteSpace=wrap;html=1;" vertex="1" parent="E5Us2acqexVQ0qHORM-2-5">
          <mxGeometry x="326" y="55" width="54" height="165" as="geometry"/>
        </mxCell>
        <mxCell id="E5Us2acqexVQ0qHORM-2-11" value="popover" style="rounded=1;whiteSpace=wrap;html=1;" vertex="1" parent="E5Us2acqexVQ0qHORM-2-5">
          <mxGeometry x="396" y="55" width="54" height="165" as="geometry"/>
        </mxCell>
        <mxCell id="E5Us2acqexVQ0qHORM-2-12" value="动画组件" style="rounded=1;whiteSpace=wrap;html=1;" vertex="1" parent="E5Us2acqexVQ0qHORM-2-5">
          <mxGeometry x="466" y="55" width="54" height="165" as="geometry"/>
        </mxCell>
        <mxCell id="E5Us2acqexVQ0qHORM-2-13" value="IAP" style="rounded=1;whiteSpace=wrap;html=1;" vertex="1" parent="E5Us2acqexVQ0qHORM-2-5">
          <mxGeometry x="536" y="55" width="54" height="165" as="geometry"/>
        </mxCell>
        <mxCell id="E5Us2acqexVQ0qHORM-2-14" value="表白大厅" style="rounded=1;whiteSpace=wrap;html=1;" vertex="1" parent="E5Us2acqexVQ0qHORM-2-5">
          <mxGeometry x="606" y="55" width="54" height="165" as="geometry"/>
        </mxCell>
        <mxCell id="E5Us2acqexVQ0qHORM-2-15" value="个性商城" style="rounded=1;whiteSpace=wrap;html=1;" vertex="1" parent="E5Us2acqexVQ0qHORM-2-5">
          <mxGeometry x="676" y="55" width="54" height="165" as="geometry"/>
        </mxCell>
        <mxCell id="E5Us2acqexVQ0qHORM-2-16" value="link dispatch" style="rounded=1;whiteSpace=wrap;html=1;" vertex="1" parent="E5Us2acqexVQ0qHORM-2-5">
          <mxGeometry x="746" y="55" width="54" height="165" as="geometry"/>
        </mxCell>
        <mxCell id="E5Us2acqexVQ0qHORM-2-17" value="Account Manager" style="rounded=1;whiteSpace=wrap;html=1;" vertex="1" parent="E5Us2acqexVQ0qHORM-2-5">
          <mxGeometry x="816" y="55" width="54" height="165" as="geometry"/>
        </mxCell>
        <mxCell id="E5Us2acqexVQ0qHORM-2-18" value="" style="shape=singleArrow;direction=south;whiteSpace=wrap;html=1;fillColor=#fff2cc;strokeColor=#d6b656;" vertex="1" parent="E5Us2acqexVQ0qHORM-2-2">
          <mxGeometry x="500" y="360" width="60" height="102" as="geometry"/>
        </mxCell>
        <mxCell id="E5Us2acqexVQ0qHORM-2-19" value="Core" style="swimlane;" vertex="1" parent="E5Us2acqexVQ0qHORM-2-2">
          <mxGeometry x="100" y="810" width="896" height="460" as="geometry"/>
        </mxCell>
        <mxCell id="E5Us2acqexVQ0qHORM-2-20" value="语音服务中间层" style="rounded=1;whiteSpace=wrap;html=1;labelBackgroundColor=none;" vertex="1" parent="E5Us2acqexVQ0qHORM-2-19">
          <mxGeometry x="16" y="50" width="94" height="102" as="geometry"/>
        </mxCell>
        <mxCell id="E5Us2acqexVQ0qHORM-2-21" value="3 libs" style="swimlane;labelBackgroundColor=none;" vertex="1" parent="E5Us2acqexVQ0qHORM-2-19">
          <mxGeometry x="26" y="249" width="74" height="181" as="geometry"/>
        </mxCell>
        <mxCell id="E5Us2acqexVQ0qHORM-2-22" value="GME" style="rounded=1;html=1;" vertex="1" parent="E5Us2acqexVQ0qHORM-2-21">
          <mxGeometry x="15" y="51" width="44" height="101" as="geometry"/>
        </mxCell>
        <mxCell id="E5Us2acqexVQ0qHORM-2-23" value="" style="shape=singleArrow;direction=south;whiteSpace=wrap;html=1;fillColor=#fff2cc;strokeColor=#d6b656;" vertex="1" parent="E5Us2acqexVQ0qHORM-2-19">
          <mxGeometry x="33" y="160" width="60" height="81" as="geometry"/>
        </mxCell>
        <mxCell id="E5Us2acqexVQ0qHORM-2-24" value="" style="shape=singleArrow;direction=south;whiteSpace=wrap;html=1;fillColor=#fff2cc;strokeColor=#d6b656;" vertex="1" parent="E5Us2acqexVQ0qHORM-2-2">
          <mxGeometry x="513" y="710" width="60" height="102" as="geometry"/>
        </mxCell>
        <mxCell id="E5Us2acqexVQ0qHORM-2-25" value="3 libs" style="swimlane;labelBackgroundColor=none;" vertex="1" parent="E5Us2acqexVQ0qHORM-2-2">
          <mxGeometry x="95" y="1310" width="515" height="220" as="geometry"/>
        </mxCell>
        <mxCell id="E5Us2acqexVQ0qHORM-2-26" value="AFNet" style="rounded=1;html=1;" vertex="1" parent="E5Us2acqexVQ0qHORM-2-25">
          <mxGeometry x="13" y="46" width="39" height="140" as="geometry"/>
        </mxCell>
        <mxCell id="E5Us2acqexVQ0qHORM-2-27" value="WCDB" style="rounded=1;html=1;" vertex="1" parent="E5Us2acqexVQ0qHORM-2-25">
          <mxGeometry x="66" y="46" width="44" height="140" as="geometry"/>
        </mxCell>
        <mxCell id="E5Us2acqexVQ0qHORM-2-28" value="SwiftyUserDefault" style="rounded=1;html=1;labelBackgroundColor=none;labelPosition=center;verticalLabelPosition=middle;align=center;verticalAlign=middle;whiteSpace=wrap;" vertex="1" parent="E5Us2acqexVQ0qHORM-2-25">
          <mxGeometry x="125" y="45" width="105" height="145" as="geometry"/>
        </mxCell>
        <mxCell id="E5Us2acqexVQ0qHORM-2-29" value="GME" style="rounded=1;html=1;" vertex="1" parent="E5Us2acqexVQ0qHORM-2-25">
          <mxGeometry x="245" y="45" width="44" height="140" as="geometry"/>
        </mxCell>
        <mxCell id="E5Us2acqexVQ0qHORM-2-30" value="环信" style="rounded=1;html=1;" vertex="1" parent="E5Us2acqexVQ0qHORM-2-25">
          <mxGeometry x="304" y="45" width="44" height="140" as="geometry"/>
        </mxCell>
        <mxCell id="E5Us2acqexVQ0qHORM-2-31" value="SVProgress" style="rounded=1;html=1;" vertex="1" parent="E5Us2acqexVQ0qHORM-2-25">
          <mxGeometry x="363" y="45" width="77" height="140" as="geometry"/>
        </mxCell>
        <mxCell id="E5Us2acqexVQ0qHORM-2-32" value="&lt;b&gt;iOS&lt;/b&gt;" style="rounded=1;whiteSpace=wrap;html=1;" vertex="1" parent="E5Us2acqexVQ0qHORM-2-2">
          <mxGeometry x="95" y="1640" width="1245" height="60" as="geometry"/>
        </mxCell>
        <mxCell id="E5Us2acqexVQ0qHORM-2-33" value="房间" style="rounded=1;whiteSpace=wrap;html=1;align=center;" vertex="1" parent="E5Us2acqexVQ0qHORM-2-2">
          <mxGeometry x="130" y="265" width="65" height="60" as="geometry"/>
        </mxCell>
        <mxCell id="E5Us2acqexVQ0qHORM-2-34" value="登录" style="rounded=1;whiteSpace=wrap;html=1;align=center;" vertex="1" parent="E5Us2acqexVQ0qHORM-2-2">
          <mxGeometry x="230" y="265" width="65" height="60" as="geometry"/>
        </mxCell>
        <mxCell id="E5Us2acqexVQ0qHORM-2-35" value="匹配" style="rounded=1;whiteSpace=wrap;html=1;align=center;" vertex="1" parent="E5Us2acqexVQ0qHORM-2-2">
          <mxGeometry x="330" y="265" width="65" height="60" as="geometry"/>
        </mxCell>
        <mxCell id="E5Us2acqexVQ0qHORM-2-36" value="大厅" style="rounded=1;whiteSpace=wrap;html=1;align=center;" vertex="1" parent="E5Us2acqexVQ0qHORM-2-2">
          <mxGeometry x="430" y="265" width="65" height="60" as="geometry"/>
        </mxCell>
        <mxCell id="E5Us2acqexVQ0qHORM-2-37" value="商城" style="rounded=1;whiteSpace=wrap;html=1;align=center;" vertex="1" parent="E5Us2acqexVQ0qHORM-2-2">
          <mxGeometry x="530" y="265" width="65" height="60" as="geometry"/>
        </mxCell>
        <mxCell id="E5Us2acqexVQ0qHORM-2-40" style="rounded=0;orthogonalLoop=1;jettySize=auto;html=1;exitX=0;exitY=0.5;exitDx=0;exitDy=0;entryX=1;entryY=0.5;entryDx=0;entryDy=0;startArrow=classic;startFill=1;" edge="1" parent="E5Us2acqexVQ0qHORM-2-2" source="E5Us2acqexVQ0qHORM-2-38" target="E5Us2acqexVQ0qHORM-2-37">
          <mxGeometry relative="1" as="geometry"/>
        </mxCell>
        <mxCell id="E5Us2acqexVQ0qHORM-2-38" value="动态" style="rounded=1;whiteSpace=wrap;html=1;align=center;" vertex="1" parent="E5Us2acqexVQ0qHORM-2-2">
          <mxGeometry x="630" y="265" width="65" height="60" as="geometry"/>
        </mxCell>
        <mxCell id="E5Us2acqexVQ0qHORM-2-39" value="私聊" style="rounded=1;whiteSpace=wrap;html=1;align=center;" vertex="1" parent="E5Us2acqexVQ0qHORM-2-2">
          <mxGeometry x="730" y="265" width="65" height="60" as="geometry"/>
        </mxCell>
      </root>
    </mxGraphModel>
  </diagram>
</mxfile>
